<svg width="96" height="96" xmlns="http://www.w3.org/2000/svg" xmlns:xlink="http://www.w3.org/1999/xlink" xml:space="preserve" overflow="hidden"><defs><clipPath id="clip0"><rect x="592" y="225" width="96" height="96"/></clipPath></defs><g clip-path="url(#clip0)" transform="translate(-592 -225)"><path d="M631.058 249.592 630.788 247.702C630.788 247.372 629.608 243.961 624.448 243.081 624.448 243.081 625.378 239.74 624.038 239.081 623.359 238.818 622.633 238.697 621.906 238.726 617.749 238.726 610.029 241.406 605.377 248.904 601.187 255.656 601.087 263.828 605.097 271.91 606.097 273.91 608.657 277.91 608.657 280.91 608.657 280.91 608.701 285.952 608.701 286.138 606.57 286.68 605.282 288.848 605.824 290.979 606.184 292.393 607.287 293.496 608.701 293.856L608.701 298 604.701 298 604.701 306 636.701 306 636.701 298 632.701 298 632.701 293.857C634.832 293.315 636.12 291.147 635.578 289.016 635.218 287.602 634.115 286.499 632.701 286.139L632.701 281.991C635.255 279.163 635.865 275.08 634.251 271.628 633.031 268.848 627.301 264.937 625.251 263.806 624.335 263.296 623.631 262.477 623.262 261.496 623.261 261.491 623.264 261.485 623.269 261.484 623.272 261.483 623.275 261.483 623.277 261.485 624.204 262.139 625.365 262.368 626.471 262.116 626.74 262.017 627.024 261.966 627.31 261.966 628.477 262.097 629.538 262.705 630.241 263.646 630.692 264.125 631.33 264.381 631.987 264.346 633.079 264.267 634.146 263.981 635.131 263.504 637.947 262.279 639.477 259.208 638.761 256.222 638.708 254.694 631.058 249.592 631.058 249.592ZM634.7 300 634.7 304 606.7 304 606.7 300 610.7 300 610.7 294 630.7 294 630.7 300ZM633.7 290C633.7 291.105 632.805 292 631.7 292L609.7 292C608.595 292 607.7 291.105 607.7 290 607.7 288.895 608.595 288 609.7 288L631.7 288C632.805 288 633.7 288.895 633.7 290ZM634.346 261.667C633.6 262.02 632.803 262.251 631.984 262.35 631.897 262.356 631.81 262.343 631.728 262.312 630.659 260.932 629.049 260.078 627.307 259.968 626.842 259.968 626.381 260.041 625.939 260.185 625.405 260.283 624.855 260.16 624.414 259.843L622.668 258.59 620.617 260.1 621.37 262.151C621.903 263.596 622.936 264.802 624.282 265.551 626.662 266.863 631.559 270.469 632.437 272.469 633.714 275.191 633.232 278.415 631.214 280.644L630.698 281.216 630.698 281.985 630.7 286 610.7 286 610.657 280.913C610.657 277.971 608.868 274.685 607.557 272.286 607.296 271.807 607.057 271.378 606.883 271.022 603.192 263.582 603.259 256.102 607.071 249.959 611.271 243.185 618.242 240.726 621.901 240.726 622.188 240.723 622.475 240.743 622.759 240.785 622.753 241.38 622.671 241.972 622.516 242.546L621.922 244.681 624.106 245.054C627.757 245.677 628.682 247.708 628.811 248.041L629.073 249.877 629.2 250.762 629.943 251.262C632.79 253.162 636.143 255.741 636.81 256.701 637.297 258.734 636.26 260.824 634.346 261.665Z"/><path d="M672.7 298 672.7 293.443C674.608 292.343 675.263 289.904 674.163 287.996 673.45 286.758 672.129 285.997 670.7 286L670.659 286 669.784 264.99C671.989 264.861 673.672 262.968 673.543 260.763 673.423 258.709 671.765 257.082 669.709 257L670.245 252.984 672.7 252.984 672.7 240 665.7 240 665.7 244 663.7 244 663.7 240 655.7 240 655.7 244 653.7 244 653.7 240 646.7 240 646.7 252.983 649.155 252.983 649.691 257C647.483 257.082 645.76 258.938 645.842 261.146 645.919 263.21 647.554 264.876 649.616 264.991L648.741 286 648.7 286C646.497 285.992 644.706 287.772 644.698 289.974 644.694 291.407 645.458 292.732 646.7 293.446L646.7 298 642.7 298 642.7 306 676.7 306 676.7 298ZM648.7 250.983 648.7 242 651.7 242 651.7 246 657.7 246 657.7 242 661.7 242 661.7 246 667.7 246 667.7 242 670.7 242 670.7 250.986 668.494 250.986 667.691 257 651.709 257 650.909 250.985ZM647.7 261C647.7 259.895 648.595 259 649.7 259L669.7 259C670.805 259 671.7 259.895 671.7 261 671.7 262.105 670.805 263 669.7 263L649.7 263C648.595 263 647.7 262.105 647.7 261ZM651.618 265 667.783 265 668.658 286 650.742 286ZM648.7 288 670.7 288C671.805 288 672.7 288.895 672.7 290 672.7 291.105 671.805 292 670.7 292L648.7 292C647.595 292 646.7 291.105 646.7 290 646.7 288.895 647.595 288 648.7 288ZM674.7 304 644.7 304 644.7 300 648.7 300 648.7 294 670.7 294 670.7 300 674.7 300Z"/></g></svg>