<svg width="96" height="96" xmlns="http://www.w3.org/2000/svg" xmlns:xlink="http://www.w3.org/1999/xlink" xml:space="preserve" overflow="hidden"><defs><clipPath id="clip0"><rect x="393" y="225" width="96" height="96"/></clipPath></defs><g clip-path="url(#clip0)" transform="translate(-393 -225)"><path d="M467.48 242 414.52 242 397.66 263.074 441 306.414 484.34 263.074ZM424.323 264 439.578 302.136C439.588 302.161 439.578 302.166 439.561 302.147L401.431 264.017C401.422 264.008 401.425 264 401.438 264ZM455.523 264 441.009 300.284C441.004 300.297 440.996 300.297 440.991 300.284L426.477 264ZM426.344 262 431.744 244 450.256 244 455.656 262ZM457.677 264 480.562 264C480.575 264 480.578 264.008 480.569 264.017L442.439 302.147C442.436 302.152 442.43 302.153 442.425 302.15 442.42 302.147 442.419 302.141 442.422 302.136ZM480.9 262 457.744 262 452.344 244 466.52 244 480.907 261.984C480.914 261.993 480.91 262 480.9 262ZM415.48 244 429.656 244 424.256 262 401.1 262C401.089 262 401.085 261.993 401.092 261.984Z"/></g></svg>